<svg width="16" height="16" viewBox="0 0 16 16" fill="none" xmlns="http://www.w3.org/2000/svg">
<path d="M5.99998 14.6667H9.99998C13.3333 14.6667 14.6666 13.3334 14.6666 10V6.00004C14.6666 2.66671 13.3333 1.33337 9.99998 1.33337H5.99998C2.66665 1.33337 1.33331 2.66671 1.33331 6.00004V10C1.33331 13.3334 2.66665 14.6667 5.99998 14.6667Z" stroke="#FAFAFA" stroke-linecap="round" stroke-linejoin="round"/>
<path d="M6.00002 6.66667C6.7364 6.66667 7.33335 6.06971 7.33335 5.33333C7.33335 4.59695 6.7364 4 6.00002 4C5.26364 4 4.66669 4.59695 4.66669 5.33333C4.66669 6.06971 5.26364 6.66667 6.00002 6.66667Z" stroke="#FAFAFA" stroke-linecap="round" stroke-linejoin="round"/>
<path d="M1.78003 12.6333L5.0667 10.4266C5.59336 10.0733 6.35336 10.1133 6.8267 10.52L7.0467 10.7133C7.5667 11.16 8.4067 11.16 8.9267 10.7133L11.7 8.33329C12.22 7.88662 13.06 7.88662 13.58 8.33329L14.6667 9.26662" stroke="#FAFAFA" stroke-linecap="round" stroke-linejoin="round"/>
</svg>
